Coordinates
version=1
nRows=36
nColumns=8
inDegrees=yes

Units are S.I. units (second, meters, Newtons, ...)
If the header above contains a line with 'inDegrees', this indicates whether rotational values are in degrees (yes) or radians (no).

endheader
time	bJoint_1	bJoint_3	bJoint_4	seatpos	hipangle	kneeangle	footangle
      0.02000000	      0.00000000	     -0.00000000	      0.00000000	     -0.65508587	     23.60601483	    144.82768170	     78.43369653
      0.04000000	      0.00000000	      0.00000000	      0.00000000	     -0.65408586	     23.65271736	    144.70171646	     78.35443382
      0.06000000	      0.00000000	     -0.00000000	      0.00000000	     -0.65208590	     23.74662447	    144.44958129	     78.19620576
      0.08000000	      0.00000000	     -0.00000000	     -0.00000000	     -0.65108592	     23.79382736	    144.32340866	     78.11723602
      0.10000000	      0.00000000	     -0.00000000	     -0.00000000	     -0.65008592	     23.84119516	    144.19716483	     78.03835999
      0.12000000	      0.00000000	     -0.00000000	     -0.00000000	     -0.64808595	     23.93641871	    143.94446773	     77.88088645
      0.14000000	      0.00000000	      0.00000000	      0.00000000	     -0.64708600	     23.98426888	    143.81802033	     77.80228921
      0.16000000	      0.00000000	      0.00000000	      0.00000000	     -0.64608597	     24.03228443	    143.69149140	     77.72377583
      0.18000000	      0.00000000	     -0.00000000	     -0.00000000	     -0.64508598	     24.08045545	    143.56489732	     77.64535276
      0.20000000	      0.00000000	     -0.00000000	      0.00000000	     -0.64308599	     24.17726712	    143.31149896	     77.48876608
      0.22000000	      0.00000000	     -0.00000000	     -0.00000000	     -0.64208601	     24.22590456	    143.18469689	     77.41060145
      0.24000000	      0.00000000	      0.00000000	     -0.00000000	     -0.64108602	     24.27469588	    143.05782350	     77.33251938
      0.26000000	      0.00000000	     -0.00000000	     -0.00000000	     -0.63908604	     24.37273366	    142.80386781	     77.17660147
      0.28000000	      0.00000000	     -0.00000000	      0.00000000	     -0.63808608	     24.42197670	    142.67678811	     77.09876481
      0.30000000	      0.00000000	      0.00000000	      0.00000000	     -0.63708607	     24.47137095	    142.54963319	     77.02100414
      0.32000000	      0.00000000	     -0.00000000	     -0.00000000	     -0.63508608	     24.57060046	    142.29511587	     76.86571632
      0.34000000	      0.00000000	     -0.00000000	      0.00000000	     -0.63408609	     24.62043393	    142.16775295	     76.78818689
      0.36000000	      0.00000000	     -0.00000000	     -0.00000000	     -0.63308610	     24.67041209	    142.04031984	     76.71073193
      0.38000000	      0.00000000	     -0.00000000	     -0.00000000	     -0.63108611	     24.77079842	    141.78524284	     76.55604126
      0.40000000	      0.00000000	     -0.00000000	     -0.00000000	     -0.63008613	     24.82120392	    141.65760060	     76.47880452
      0.42000000	      0.00000000	     -0.00000000	      0.00000000	     -0.62908614	     24.87175041	    141.52988726	     76.40163767
      0.44000000	      0.00000000	     -0.00000000	     -0.00000000	     -0.62708615	     24.97326193	    141.27424865	     76.24751058
      0.46000000	      0.00000000	     -0.00000000	      0.00000000	     -0.62608617	     25.02422409	    141.14632575	     76.17054984
      0.48000000	      0.00000000	     -0.00000000	     -0.00000000	     -0.62508617	     25.07532377	    141.01833083	     76.09365460
      0.50000000	      0.00000000	     -0.00000000	     -0.00000000	     -0.62308637	     25.17792057	    140.76215343	     75.94007400
      0.52000000	      0.00000000	      0.00000000	     -0.00000000	     -0.62208621	     25.22943424	    140.63392514	     75.86335938
      0.54000000	      0.00000000	     -0.00000000	      0.00000000	     -0.62008626	     25.33284095	    140.37730575	     75.71014669
      0.56000000	      0.00000000	      0.00000000	     -0.00000000	     -0.61908624	     25.38474444	    140.24888428	     75.63362871
      0.58000000	      0.00000000	     -0.00000000	     -0.00000000	     -0.61808624	     25.43677801	    140.12039371	     75.55717172
      0.60000000	      0.00000000	     -0.00000000	      0.00000000	     -0.61608625	     25.54123282	    139.86320330	     75.40443612
      0.62000000	      0.00000000	      0.00000000	     -0.00000000	     -0.61508627	     25.59365303	    139.73450184	     75.32815488
      0.64000000	      0.00000000	     -0.00000000	      0.00000000	     -0.61408629	     25.64619999	    139.60573128	     75.25193127
      0.66000000	      0.00000000	     -0.00000000	      0.00000000	     -0.61208632	     25.75167497	    139.34797288	     75.09964785
      0.68000000	      0.00000000	      0.00000000	      0.00000000	     -0.61108631	     25.80460176	    139.21898420	     75.02358595
      0.70000000	      0.00000000	     -0.00000000	     -0.00000000	     -0.61008631	     25.85765276	    139.08992481	     74.94757757
      0.72000000	      0.00000000	     -0.00000000	      0.00000000	     -0.60808633	     25.96412451	    138.83159359	     74.79571810
